<svg width="86" height="45" viewBox="0 0 86 45" fill="none" xmlns="http://www.w3.org/2000/svg">
<path d="M29.1718 25.9818L38.9024 0.913382C39.1108 0.385422 39.6525 0.0334473 40.2567 0.0334473H44.424C45.0283 0.0334473 45.57 0.385422 45.7784 0.913382L51.3209 15.2075H53.467C53.9046 15.2075 54.3005 15.4617 54.4463 15.8527L55.3007 18.0623C55.384 18.2775 55.2173 18.4926 54.9672 18.4926H52.5919L53.1128 19.8027H55.259C55.6965 19.8027 56.0924 20.0569 56.2383 20.448L57.0926 22.6576C57.1759 22.8726 57.0092 23.0877 56.7592 23.0877H54.3838L55.4881 25.9427C55.5715 26.1577 55.4048 26.3728 55.1548 26.3728H50.8208C50.3833 26.3728 49.9874 26.1186 49.8415 25.7276L48.8206 23.0682H35.7145C35.4644 23.0682 35.2977 22.8335 35.3811 22.638L36.2354 20.4284C36.3812 20.0373 36.7771 19.7831 37.2146 19.7831H47.5287L47.0077 18.473H37.4855C37.2355 18.473 37.0688 18.2384 37.1522 18.0428L38.0065 15.8332C38.1523 15.4421 38.5482 15.1879 38.9857 15.1879H45.7159L41.6111 4.58956C41.5069 4.29625 41.0694 4.29625 40.9444 4.58956L32.7557 25.7667C32.6098 26.1577 32.2139 26.4119 31.7764 26.4119H29.5052C29.2552 26.4119 29.0885 26.1773 29.1718 25.9818Z" fill="url(#paint0_linear_2_2061)"/>
<path d="M6.91793 37.8513V37.734C6.93877 37.734 7.00128 37.734 7.10546 37.7144C7.20965 37.6949 7.31383 37.6753 7.41801 37.6362C7.52219 37.5971 7.62637 37.5384 7.70973 37.4602C7.79303 37.382 7.83474 37.2842 7.83474 37.1864C7.83474 37.1082 7.81391 36.9909 7.7722 36.8345C7.73056 36.678 7.6472 36.463 7.56384 36.2283C7.48048 35.9937 7.3763 35.7199 7.27212 35.4266C7.16794 35.1333 7.04293 34.8204 6.91793 34.5076H3.45909C3.33407 34.8204 3.20905 35.1137 3.08404 35.3875C2.95902 35.6612 2.83401 35.9545 2.72982 36.2283C2.5423 36.6585 2.45895 36.9714 2.45895 37.1473C2.45895 37.2451 2.50062 37.3429 2.56313 37.4015C2.62564 37.4798 2.72982 37.5189 2.83401 37.5776C2.93819 37.6166 3.0632 37.6557 3.18822 37.6753C3.31324 37.6949 3.43825 37.7144 3.54244 37.734V37.8513H0.750366V37.7144C0.979566 37.6949 1.16709 37.6362 1.33378 37.5384C1.50048 37.4407 1.58382 37.382 1.60466 37.3624C1.66717 37.3038 1.77135 37.1669 1.89637 36.9518C2.04222 36.7367 2.20891 36.4238 2.39644 36.0132C2.58397 35.6221 2.7715 35.1919 3.0007 34.7031C3.22989 34.2142 3.45909 33.7058 3.68829 33.1974C3.91749 32.689 4.16753 32.161 4.39673 31.6331C4.62593 31.1051 4.85513 30.6163 5.06349 30.1665L4.93847 29.8928C5.08433 29.8341 5.23018 29.7559 5.3552 29.6581C5.48022 29.5603 5.5844 29.4821 5.68858 29.3844C5.79277 29.2866 5.85528 29.1888 5.93862 29.1106C6.00113 29.0129 6.06364 28.9542 6.08448 28.8955H6.18866C6.45953 29.5603 6.70956 30.2056 6.9596 30.8118C7.20965 31.418 7.43884 32.0046 7.6472 32.5522C7.87639 33.1192 8.08475 33.6472 8.29311 34.1751C8.50148 34.7031 8.70984 35.2115 8.91821 35.7199C9.02239 35.9741 9.10575 36.1892 9.1891 36.3456C9.27246 36.5216 9.35576 36.6976 9.45994 36.9127C9.48083 36.9518 9.52247 37.0105 9.58501 37.0887C9.64748 37.1669 9.73084 37.2451 9.83502 37.3429C9.9392 37.4211 10.0642 37.4993 10.2101 37.5776C10.3559 37.6362 10.5226 37.6753 10.731 37.6949V37.8318H6.91793V37.8513ZM5.23018 30.4794C5.16768 30.5771 5.10517 30.7532 5.00098 30.9878C4.8968 31.2225 4.77178 31.4962 4.62593 31.809C4.48007 32.1415 4.31338 32.4935 4.14669 32.9041C3.95916 33.3147 3.77164 33.7645 3.56327 34.2338H6.79291C6.64706 33.8622 6.5012 33.5103 6.33451 33.1387C6.18866 32.7672 6.0428 32.4152 5.89695 32.0828C5.75109 31.7504 5.62608 31.4375 5.50106 31.1638C5.39687 30.89 5.31353 30.6554 5.23018 30.4794Z" fill="#111827"/>
<path d="M22.9835 37.8515V37.7147C23.3586 37.6951 23.6712 37.6169 23.9212 37.4996C24.1712 37.3627 24.3379 37.2258 24.4213 37.0498C24.4629 36.9521 24.5045 36.8152 24.5463 36.6588C24.5671 36.5023 24.5879 36.3459 24.6087 36.1699C24.6296 35.6419 24.6296 35.114 24.6296 34.6447C24.6296 34.1558 24.6296 33.6474 24.6296 33.139V29.678C24.3379 30.2841 24.0878 30.8316 23.8378 31.34C23.6086 31.8484 23.3586 32.3373 23.1294 32.8066C22.9002 33.2954 22.6502 33.7843 22.421 34.2732C22.1917 34.7815 21.9209 35.3291 21.6292 35.9157C21.5875 35.9939 21.525 36.1308 21.4416 36.3068C21.3583 36.4828 21.2958 36.6588 21.2124 36.8347C21.1291 37.0108 21.0666 37.1867 20.9832 37.3431C20.9207 37.4996 20.8791 37.5973 20.8582 37.6365H20.7749C20.504 37.0303 20.2331 36.4437 19.9414 35.8375C19.6705 35.2509 19.3997 34.6642 19.1496 34.1167C18.8996 33.5692 18.6495 33.0608 18.4203 32.5719C18.1911 32.0831 17.9828 31.6725 17.8161 31.3009C17.6286 30.9294 17.4827 30.6165 17.3577 30.3623C17.2327 30.1081 17.1702 29.9322 17.1077 29.8539C17.1077 30.3819 17.1077 30.8707 17.1077 31.2814C17.1077 31.692 17.1077 32.1026 17.0868 32.4938C17.0868 32.9044 17.0868 33.315 17.0868 33.7648C17.0868 34.2145 17.0868 34.7229 17.0868 35.3291C17.0868 35.7202 17.1077 36.0331 17.1285 36.3263C17.1493 36.6001 17.2119 36.8347 17.316 37.0303C17.4202 37.2258 17.5869 37.3627 17.7952 37.48C18.0036 37.5973 18.2953 37.6756 18.6704 37.7147V37.832H15.274V37.7147C15.5866 37.656 15.8158 37.5778 16.0241 37.4605C16.2117 37.3431 16.3575 37.2063 16.4826 37.0108C16.5868 36.8152 16.6701 36.5805 16.7326 36.2873C16.7951 35.9939 16.816 35.6419 16.816 35.2313C16.8368 34.8793 16.8368 34.4687 16.8576 33.9994C16.8576 33.5301 16.8784 33.0217 16.8784 32.4742C16.8784 32.2395 16.8784 32.044 16.8784 31.868C16.8784 31.7116 16.8784 31.5551 16.8784 31.3987C16.8784 31.2423 16.8784 31.0858 16.8784 30.9294C16.8784 30.7729 16.8784 30.5774 16.8576 30.3232C16.8576 30.0886 16.7951 29.9126 16.7118 29.7757C16.6076 29.6388 16.5034 29.5215 16.3784 29.4433C16.2533 29.3651 16.1075 29.3064 15.9617 29.2673C15.8158 29.2282 15.6908 29.2087 15.5866 29.1891V29.0913H18.3579L21.4624 35.7202C21.8375 34.9576 22.2126 34.1754 22.5876 33.4128C22.9419 32.6502 23.2753 31.9658 23.5669 31.34C23.8586 30.7143 24.0878 30.2059 24.2754 29.7952C24.4629 29.3846 24.5671 29.15 24.5879 29.0913H27.3592V29.2087C27.0049 29.2087 26.7341 29.2868 26.5465 29.4237C26.359 29.5606 26.234 29.7171 26.1715 29.893C26.109 30.0299 26.0882 30.245 26.0673 30.5383C26.0465 30.8316 26.0465 31.1249 26.0256 31.3987C26.0256 31.7898 26.0048 32.1613 26.0048 32.5328C26.0048 32.9044 26.0048 33.2759 26.0048 33.6474C26.0048 34.0776 26.0048 34.5274 26.0048 34.9576C26.0048 35.3877 26.0048 35.8375 26.0256 36.3263C26.0256 36.4828 26.0465 36.6392 26.0673 36.7956C26.0882 36.9521 26.1298 37.0694 26.1715 37.1672C26.1715 37.1867 26.2132 37.2258 26.2756 37.2845C26.3382 37.3431 26.4215 37.4018 26.5257 37.48C26.6299 37.5582 26.7549 37.6169 26.9216 37.656C27.0675 37.7147 27.255 37.7342 27.4634 37.7538V37.8711H22.9835V37.8515Z" fill="#111827"/>
<path d="M34.0059 37.8513V37.734C34.0267 37.734 34.0892 37.734 34.1934 37.7144C34.2976 37.6949 34.4018 37.6753 34.506 37.6362C34.6101 37.5971 34.7143 37.5384 34.7977 37.4602C34.881 37.382 34.9227 37.2842 34.9227 37.1864C34.9227 37.1082 34.9019 36.9909 34.8602 36.8345C34.8185 36.678 34.7351 36.463 34.6518 36.2283C34.5684 35.9937 34.4642 35.7199 34.3601 35.4266C34.2559 35.1333 34.1309 34.8204 34.0059 34.5076H30.547C30.422 34.8204 30.297 35.1137 30.172 35.3875C30.047 35.6612 29.9219 35.9545 29.8178 36.2283C29.6302 36.6585 29.5469 36.9714 29.5469 37.1473C29.5469 37.2451 29.5886 37.3429 29.651 37.4015C29.7136 37.4798 29.8178 37.5189 29.9219 37.5776C30.0261 37.6166 30.1511 37.6557 30.2761 37.6753C30.4011 37.6949 30.5262 37.7144 30.6304 37.734V37.8513H27.8591V37.7144C28.0883 37.6949 28.2759 37.6362 28.4426 37.5384C28.6092 37.4407 28.6926 37.382 28.7134 37.3624C28.7759 37.3038 28.8801 37.1669 29.0051 36.9518C29.151 36.7367 29.3177 36.4238 29.5052 36.0132C29.6928 35.6221 29.8802 35.1919 30.1095 34.7031C30.3387 34.2142 30.5679 33.7058 30.7971 33.1974C31.0262 32.689 31.2763 32.161 31.5055 31.6331C31.7347 31.1051 31.9639 30.6163 32.1722 30.1665L32.0472 29.8928C32.1931 29.8341 32.339 29.7559 32.464 29.6581C32.589 29.5603 32.6932 29.4821 32.7973 29.3844C32.9015 29.2866 32.9641 29.1888 33.0474 29.1106C33.1099 29.0129 33.1516 28.9542 33.1932 28.8955H33.2974C33.5683 29.5603 33.8183 30.2056 34.0684 30.8118C34.3184 31.418 34.5476 32.0046 34.756 32.5522C34.9852 33.1192 35.1935 33.6472 35.4019 34.1751C35.6102 34.7031 35.8186 35.2115 36.027 35.7199C36.1312 35.9741 36.2145 36.1892 36.2979 36.3456C36.3812 36.5216 36.4646 36.6976 36.5687 36.9127C36.5896 36.9518 36.6312 37.0105 36.6938 37.0887C36.7563 37.1669 36.8396 37.2451 36.9438 37.3429C37.048 37.4211 37.173 37.4993 37.3189 37.5776C37.4647 37.6362 37.6314 37.6753 37.8398 37.6949V37.8318H34.0059V37.8513ZM32.2973 30.4794C32.2348 30.5771 32.1722 30.7532 32.0681 30.9878C31.9639 31.2225 31.8389 31.4962 31.693 31.809C31.5471 32.1415 31.3805 32.4935 31.2138 32.9041C31.0262 33.3147 30.8388 33.7645 30.6304 34.2338H33.86C33.7141 33.8622 33.5683 33.5103 33.4016 33.1387C33.2558 32.7672 33.1099 32.4152 32.9641 32.0828C32.8182 31.7504 32.6932 31.4375 32.5681 31.1638C32.464 30.89 32.3806 30.6554 32.2973 30.4794Z" fill="#111827"/>
<path d="M45.4458 37.8515C45.3625 37.7734 45.3208 37.7147 45.2792 37.6951C45.2374 37.656 45.1958 37.6169 45.1541 37.5582C45.1124 37.4996 45.0499 37.4409 44.9874 37.3431C44.9249 37.2454 44.8207 37.1085 44.6749 36.913C44.5082 36.6783 44.3623 36.4828 44.2373 36.3068C44.1123 36.1308 43.9873 35.9353 43.8623 35.7593C43.7372 35.5833 43.5914 35.4073 43.4455 35.2118C43.2997 35.0358 43.1122 34.8207 42.9038 34.6056C42.7371 34.41 42.5495 34.2536 42.3412 34.0776C42.1328 33.9212 41.9244 33.8234 41.6953 33.7648C41.5286 33.7257 41.4035 33.7257 41.3202 33.7257C41.2369 33.7257 41.1327 33.7257 41.0285 33.7061C41.0285 34.2341 41.0285 34.6838 41.0285 35.0749C41.0285 35.466 41.0285 35.7983 41.0493 36.0526C41.0493 36.3068 41.0702 36.5415 41.0702 36.7174C41.0702 36.913 41.1327 37.0498 41.2161 37.1867C41.2785 37.2845 41.4244 37.4018 41.6119 37.5192C41.8203 37.6365 42.0912 37.6951 42.4453 37.7147V37.832H38.299V37.7147C38.5073 37.6756 38.7157 37.6365 38.924 37.5778C39.1324 37.5192 39.2782 37.4214 39.3824 37.2845C39.4241 37.2454 39.4658 37.1672 39.4866 37.0694C39.5074 36.9716 39.5282 36.8543 39.5491 36.737C39.57 36.6196 39.57 36.4828 39.5908 36.3459C39.5908 36.209 39.6116 36.0721 39.6116 35.9353C39.6116 35.8179 39.6116 35.6615 39.6116 35.466C39.6116 35.2704 39.6116 35.0553 39.6324 34.8207C39.6324 34.586 39.6324 34.3514 39.6324 34.1167C39.6324 33.8625 39.6324 33.6279 39.6324 33.4128V31.0467C39.6324 30.9099 39.6324 30.7534 39.6324 30.597C39.6324 30.4406 39.6116 30.3037 39.6116 30.1668C39.5908 30.0299 39.57 29.9126 39.5491 29.7952C39.5282 29.678 39.4866 29.5997 39.4241 29.5606C39.2991 29.4237 39.1532 29.3455 38.9865 29.3064C38.8199 29.2673 38.6323 29.2282 38.4031 29.1891V29.0913C38.4656 29.0913 38.6531 29.0913 38.9449 29.0913C39.2366 29.0913 39.57 29.0913 39.945 29.0913C40.3201 29.0913 40.6951 29.0913 41.0702 29.0913C41.4452 29.0913 41.737 29.0913 41.987 29.0913C42.5704 29.0913 43.0913 29.1109 43.5289 29.1304C43.9873 29.1695 44.3832 29.2673 44.7582 29.4629C45.1333 29.6584 45.4458 29.9126 45.675 30.2255C45.9042 30.5383 46.0293 30.949 46.0293 31.4378C46.0293 31.7311 45.9667 32.0049 45.8625 32.2396C45.7375 32.4742 45.5917 32.6893 45.4042 32.8653C45.2166 33.0412 44.9874 33.1977 44.7165 33.3345C44.4665 33.4715 44.1748 33.5692 43.9039 33.667V33.7061C44.0498 33.7843 44.1956 33.8821 44.3415 34.019C44.4873 34.1558 44.6124 34.3122 44.7374 34.4883C44.9666 34.8011 45.2166 35.1335 45.4666 35.4855C45.7375 35.8375 45.9667 36.1699 46.1751 36.4437C46.4876 36.8738 46.8002 37.1672 47.1127 37.3627C47.4253 37.5582 47.7795 37.6756 48.1754 37.7342V37.8515H45.4458ZM44.154 30.2645C43.9456 29.9517 43.6122 29.6975 43.2163 29.502C43.008 29.4042 42.7996 29.3455 42.5704 29.3064C42.3412 29.2673 42.0912 29.2478 41.8411 29.2478C41.6536 29.2478 41.5077 29.2477 41.4035 29.2673C41.2993 29.2673 41.1952 29.2868 41.1535 29.2868C41.1535 29.326 41.1327 29.3846 41.1327 29.4237C41.1327 29.4629 41.1119 29.5019 41.1119 29.5606C41.1119 29.6193 41.1119 29.6975 41.091 29.7952C41.091 29.893 41.0702 30.0494 41.0702 30.2255C41.0702 30.5187 41.0493 30.8316 41.0493 31.1836C41.0493 31.5356 41.0493 31.8876 41.0493 32.22C41.0493 32.5524 41.0493 32.8457 41.0493 33.0999C41.0493 33.3345 41.0493 33.491 41.0493 33.5692C41.4035 33.5692 41.737 33.5496 42.0495 33.5301C42.3621 33.5106 42.6537 33.4519 42.9454 33.3541C43.2163 33.2759 43.4663 33.1586 43.6539 33.0217C43.8623 32.8848 44.0081 32.7284 44.1331 32.5524C44.2582 32.3764 44.3415 32.1809 44.404 31.9853C44.4665 31.7898 44.4873 31.5747 44.4873 31.3596C44.4873 30.949 44.3832 30.5774 44.154 30.2645Z" fill="#111827"/>
<path d="M55.5707 37.8515C55.529 37.832 55.4873 37.8124 55.4457 37.7929C55.404 37.7734 55.3623 37.7147 55.2998 37.656C54.7372 37.0499 54.2163 36.4828 53.7162 35.9353C53.2162 35.3877 52.6953 34.8402 52.1744 34.2927C51.9451 34.058 51.7993 33.9016 51.716 33.8625C51.6326 33.8038 51.5701 33.7843 51.5076 33.7843C51.4451 33.7843 51.3826 33.8038 51.3618 33.8234C51.3409 33.8429 51.32 33.9016 51.2992 33.9603C51.2992 34.3905 51.2992 34.7816 51.2992 35.1726C51.2992 35.5441 51.2992 35.8766 51.3201 36.1308C51.3201 36.3654 51.3409 36.5805 51.3826 36.7956C51.4034 36.9912 51.4659 37.1476 51.5493 37.265C51.6118 37.3431 51.6951 37.4214 51.7993 37.48C51.9035 37.5387 52.0077 37.5778 52.1327 37.6169C52.2577 37.656 52.3828 37.6756 52.4869 37.6951C52.6119 37.7147 52.6953 37.7342 52.7995 37.7342V37.8515H48.6322V37.7342C48.8406 37.6951 49.0489 37.656 49.2573 37.5973C49.4657 37.5387 49.6115 37.4409 49.7157 37.3236C49.7573 37.265 49.799 37.2063 49.8199 37.1085C49.8407 37.0108 49.8615 36.8934 49.8824 36.7761C49.9032 36.6588 49.9032 36.5219 49.9032 36.3654C49.9032 36.2286 49.9032 36.0917 49.9032 35.9548C49.9032 35.8375 49.9032 35.6811 49.9032 35.4855C49.9032 35.2899 49.9032 35.0749 49.9032 34.8598C49.9032 34.6251 49.9032 34.3905 49.9032 34.1363C49.9032 33.8821 49.9032 33.6474 49.9032 33.4323V31.0663C49.9032 30.7534 49.8824 30.4797 49.8615 30.2059C49.8407 29.9517 49.7782 29.7561 49.6948 29.6388C49.5698 29.5019 49.424 29.4042 49.2573 29.326C49.0906 29.2673 48.8822 29.2087 48.653 29.1891V29.0913H52.6744V29.2087C52.5078 29.2282 52.341 29.2477 52.1952 29.2673C52.0493 29.2868 51.9035 29.3651 51.7785 29.4433C51.6534 29.541 51.5492 29.678 51.4659 29.8735C51.3826 30.069 51.3409 30.3232 51.3201 30.6556C51.3201 30.8512 51.2992 31.0271 51.2992 31.1836C51.2992 31.34 51.2992 31.5356 51.2992 31.7507C51.2992 31.9658 51.2992 32.22 51.2992 32.5133C51.2992 32.8066 51.2992 33.1781 51.2992 33.6279C51.4451 33.5301 51.6743 33.3932 51.9243 33.1781C52.1952 32.963 52.4661 32.7284 52.7578 32.4546C53.0495 32.1809 53.3412 31.9071 53.6121 31.6333C53.9038 31.34 54.1538 31.1054 54.3622 30.8903C54.508 30.7339 54.6331 30.5579 54.7581 30.3819C54.8831 30.2059 54.9248 30.0494 54.9248 29.9126C54.9248 29.678 54.8414 29.502 54.6747 29.4042C54.508 29.3064 54.2997 29.2282 54.0705 29.1891V29.0913H57.5501V29.2087C57.1126 29.2478 56.6542 29.4237 56.2166 29.7366C55.7582 30.0494 55.2998 30.4014 54.8414 30.8121C54.6539 30.9685 54.4663 31.1249 54.2789 31.3205C54.0913 31.4965 53.9038 31.6725 53.7162 31.8484C53.5287 32.0244 53.3412 32.2004 53.1745 32.3568C53.0078 32.5328 52.8411 32.6893 52.6953 32.8261C52.7578 32.9044 52.9245 33.0803 53.1745 33.3541C53.4245 33.6279 53.7162 33.9407 54.0705 34.3122C54.4247 34.6838 54.7789 35.0749 55.1748 35.4855C55.5707 35.8961 55.9458 36.3068 56.3208 36.6783C56.4041 36.7761 56.5083 36.8738 56.6125 36.9716C56.7167 37.0694 56.8417 37.1476 56.9459 37.2258C57.0501 37.3041 57.1334 37.3627 57.2168 37.4214C57.3001 37.48 57.3418 37.5192 57.3626 37.5192C57.4668 37.5582 57.6335 37.5973 57.821 37.6365C58.0085 37.6756 58.2378 37.7147 58.467 37.7147V37.832H55.5707V37.8515Z" fill="#111827"/>
<path d="M66.8637 37.8515H58.9252V37.7342C59.1335 37.6951 59.3419 37.656 59.5294 37.5778C59.717 37.4996 59.8628 37.4018 59.9878 37.265C60.0295 37.2258 60.0712 37.1476 60.092 37.0498C60.1128 36.9521 60.1337 36.8543 60.1545 36.7174C60.1754 36.6001 60.1962 36.4632 60.1962 36.3263C60.1962 36.1895 60.217 36.0526 60.217 35.9353C60.217 35.8179 60.217 35.6615 60.217 35.466C60.217 35.2704 60.217 35.0553 60.2379 34.8207C60.2379 34.586 60.2379 34.3514 60.2379 34.1167C60.2379 33.8625 60.2379 33.6279 60.2379 33.4128V31.0467C60.2379 30.9099 60.2379 30.7534 60.2379 30.597C60.2379 30.4406 60.217 30.3037 60.217 30.1668C60.1962 30.0299 60.1754 29.9126 60.1545 29.7952C60.1337 29.678 60.092 29.5997 60.0295 29.5606C59.9045 29.4237 59.7586 29.3455 59.6128 29.3064C59.4669 29.2673 59.2794 29.2282 59.0502 29.2087V29.0913H66.2177L67.0932 31.1054L66.9681 31.1641C66.2596 30.3428 65.6136 29.7952 64.9883 29.502C64.8426 29.4433 64.5718 29.3846 64.176 29.326C63.7801 29.2868 63.3005 29.2478 62.7174 29.2478C62.5298 29.2478 62.3424 29.2477 62.1548 29.2673C61.9673 29.2868 61.8214 29.2868 61.7381 29.3064C61.7173 29.4433 61.6964 29.6975 61.6964 30.1081C61.6756 30.5187 61.6756 30.9881 61.6756 31.516C61.6756 31.8289 61.6756 32.0831 61.6756 32.2982C61.6756 32.5133 61.6756 32.6893 61.6756 32.8066C61.6756 32.9435 61.6756 33.0412 61.6756 33.1195C61.6756 33.1781 61.6756 33.2368 61.6756 33.2564C61.7173 33.2564 61.8006 33.2564 61.9256 33.2564C62.0506 33.2564 62.1965 33.2564 62.384 33.2368C62.5507 33.2368 62.7174 33.2172 62.8841 33.1977C63.0507 33.1781 63.1966 33.1586 63.3005 33.139C63.5506 33.0803 63.7801 33.0022 63.9465 32.9044C64.1134 32.8066 64.2592 32.6893 64.3636 32.5524C64.4674 32.4155 64.5512 32.2591 64.6137 32.0635C64.6763 31.8876 64.7388 31.6725 64.7801 31.4574H64.9258V35.2899H64.7801C64.7175 35.0357 64.6137 34.762 64.4674 34.4883C64.3217 34.2145 64.176 33.9994 64.0303 33.8625C63.8839 33.7452 63.7176 33.6474 63.53 33.5887C63.3424 33.5106 63.1133 33.4715 62.8424 33.4519C62.7174 33.4519 62.6132 33.4323 62.509 33.4323C62.4256 33.4323 62.3424 33.4323 62.259 33.4323C62.1756 33.4323 62.0923 33.4323 62.0089 33.4323C61.9256 33.4323 61.8006 33.4323 61.6756 33.4323C61.6547 33.5496 61.6547 33.7061 61.6547 33.9407C61.6547 34.1558 61.6547 34.3905 61.6547 34.6251C61.6547 34.7229 61.6547 34.8598 61.6547 34.9967C61.6547 35.1335 61.6547 35.2704 61.6547 35.4073C61.6547 35.5441 61.6547 35.6615 61.6547 35.7788C61.6547 35.8961 61.6547 35.9939 61.6547 36.0721C61.6547 36.3263 61.6756 36.5805 61.6964 36.8152C61.7173 37.0499 61.7589 37.2258 61.8423 37.3236C61.9256 37.4409 62.1131 37.5192 62.4048 37.5582C62.6965 37.6169 63.0091 37.6365 63.363 37.6365C63.5094 37.6365 63.697 37.6365 63.9258 37.6169C64.1553 37.6169 64.4049 37.5973 64.655 37.5582C64.9258 37.5192 65.1972 37.4605 65.426 37.3627C65.6555 37.265 65.8844 37.128 66.0927 36.9716C66.3015 36.7957 66.5098 36.6001 66.718 36.3459C66.9262 36.0917 67.1345 35.7983 67.3433 35.4464L67.489 35.4855L66.8637 37.8515Z" fill="#111827"/>
<path d="M77.6345 31.3791C77.572 31.2422 77.4888 31.0857 77.3844 30.9293C77.2806 30.7729 77.1968 30.6165 77.093 30.4795C76.9886 30.3427 76.9054 30.2058 76.801 30.0885C76.6971 29.9711 76.6134 29.893 76.5514 29.8343C76.3638 29.6779 76.1762 29.5605 75.968 29.5018C75.7591 29.4432 75.4884 29.4237 75.1551 29.4041C74.9887 29.4041 74.8424 29.4041 74.7173 29.4041C74.5922 29.4041 74.4678 29.4041 74.3634 29.4041C74.2589 29.4041 74.1339 29.4041 73.9882 29.4041C73.8631 29.4041 73.6968 29.4041 73.5091 29.4041C73.5091 29.5996 73.5091 29.893 73.5091 30.2253C73.5091 30.5773 73.5091 30.9489 73.5091 31.3204C73.5091 31.7114 73.5091 32.083 73.5091 32.4546C73.5091 32.8261 73.5091 33.1194 73.5091 33.3736V36.072C73.5091 36.3067 73.5092 36.5413 73.5298 36.7564C73.5504 36.9716 73.5923 37.128 73.6549 37.2062C73.7799 37.3822 73.9675 37.4995 74.1964 37.5777C74.4259 37.6364 74.6548 37.6951 74.8424 37.7146V37.8319H70.6338V37.7146C70.8627 37.6951 71.0709 37.6559 71.2798 37.5973C71.488 37.5386 71.6963 37.4017 71.8839 37.1866C71.9252 37.1475 71.9671 37.0693 71.9877 36.9911C72.0089 36.8933 72.0296 36.7955 72.0502 36.6782C72.0715 36.5609 72.0715 36.424 72.0715 36.2871C72.0715 36.1503 72.0715 36.0134 72.0715 35.8765C72.0715 35.7592 72.0715 35.6223 72.0715 35.4268C72.0715 35.2312 72.0715 35.0357 72.0921 34.801C72.0921 34.5664 72.0921 34.3317 72.0921 34.0971C72.0921 33.8624 72.0921 33.6278 72.0921 33.3931V29.365C71.9045 29.365 71.7588 29.365 71.6131 29.365C71.488 29.365 71.363 29.365 71.2379 29.365C71.1335 29.365 71.0084 29.365 70.8833 29.365C70.7589 29.365 70.6126 29.365 70.4462 29.365C70.1129 29.365 69.8415 29.4041 69.6333 29.4823C69.425 29.541 69.2168 29.6583 69.0498 29.8147C68.9873 29.8734 68.9041 29.9516 68.7997 30.0689C68.7165 30.1863 68.6127 30.3036 68.5083 30.4405C68.4038 30.5773 68.3207 30.7142 68.2169 30.8707C68.1331 31.0271 68.0499 31.1835 68.008 31.3204L67.8829 31.2813L68.2794 28.9739C68.4876 29.013 68.654 29.0521 68.821 29.0717C68.9873 29.0912 69.2374 29.1108 69.5501 29.1303C69.8834 29.1303 70.1754 29.1499 70.425 29.1499C70.6751 29.1499 70.9252 29.1499 71.1754 29.1499C71.4255 29.1499 71.6544 29.1499 71.9045 29.1499C72.1547 29.1499 72.4461 29.1499 72.78 29.1499C73.092 29.1499 73.3841 29.1499 73.6342 29.1499C73.8844 29.1499 74.1551 29.1499 74.384 29.1499C74.6341 29.1499 74.8843 29.1499 75.1344 29.1303C75.3846 29.1303 75.6966 29.1303 76.0093 29.1303C76.3013 29.1303 76.5302 29.0912 76.7178 29.0717C76.9054 29.0325 77.093 28.9934 77.3012 28.9348L77.7177 31.3008L77.6345 31.3791Z" fill="#111827"/>
<path d="M84.97 36.5022C84.8037 36.8151 84.5742 37.0693 84.2615 37.2844C83.9701 37.4995 83.6155 37.6755 83.199 37.7732C82.7826 37.871 82.3236 37.9297 81.8445 37.9297C81.4281 37.9297 81.0529 37.9101 80.7608 37.8515C80.4488 37.8123 80.1986 37.7537 80.011 37.6755C79.8028 37.5973 79.6571 37.5386 79.5527 37.48C79.4482 37.4213 79.3857 37.4017 79.3651 37.4017C79.3444 37.4017 79.2819 37.4408 79.1981 37.5386C79.1149 37.6364 79.0317 37.7342 78.9692 37.8123H78.8441L78.8022 35.3877H78.9273C79.0111 35.6027 79.1149 35.8178 79.2194 36.0329C79.3444 36.248 79.4695 36.4436 79.6152 36.6196C79.7609 36.7955 79.9066 36.9716 80.0736 37.1084C80.2399 37.2453 80.3862 37.3431 80.5319 37.4213C80.6777 37.4995 80.8653 37.5581 81.1154 37.6364C81.3655 37.7146 81.5944 37.7537 81.8239 37.7537C82.4699 37.7537 82.9908 37.5973 83.3866 37.2648C83.7825 36.9324 83.9907 36.4827 83.9907 35.9352C83.9907 35.7005 83.9488 35.5049 83.8656 35.329C83.7825 35.153 83.678 35.0161 83.553 34.8792C83.4279 34.7619 83.2616 34.6446 83.074 34.5468C82.8864 34.4491 82.6988 34.3708 82.4905 34.3122C82.2823 34.2339 82.0947 34.1753 81.949 34.1362C81.8026 34.0775 81.6569 34.0384 81.5112 33.9993C81.3862 33.9602 81.2405 33.9015 81.0948 33.8624C80.9484 33.8233 80.7821 33.7646 80.5738 33.6865C80.3443 33.6082 80.1361 33.4909 79.9279 33.354C79.719 33.2172 79.532 33.0411 79.3857 32.8456C79.24 32.6501 79.0943 32.435 79.0111 32.2199C78.9067 31.9852 78.8648 31.7506 78.8648 31.4768C78.8648 31.0466 78.9486 30.6556 79.1149 30.3427C79.2819 30.0298 79.5108 29.756 79.8028 29.5605C80.0942 29.3454 80.4275 29.189 80.8027 29.0912C81.1779 28.9934 81.5738 28.9348 81.9902 28.9348C82.3861 28.9348 82.72 28.9739 82.9908 29.0325C83.2616 29.0912 83.4905 29.1695 83.6781 29.2281C83.845 29.3063 83.9907 29.365 84.0739 29.4237C84.1577 29.4823 84.2202 29.5214 84.2202 29.5214C84.2409 29.5214 84.3034 29.4627 84.3866 29.3845C84.4697 29.2868 84.5535 29.189 84.6161 29.0912H84.7618V31.3399H84.6161C84.5116 31.0662 84.3866 30.812 84.2202 30.5382C84.0533 30.2645 83.8657 30.0298 83.6574 29.8343C83.4492 29.6192 83.199 29.4627 82.907 29.3259C82.6362 29.189 82.3236 29.1303 81.9902 29.1303C81.7195 29.1303 81.4693 29.1695 81.2405 29.2476C81.011 29.3259 80.8027 29.4237 80.6151 29.5801C80.4488 29.7169 80.3024 29.9125 80.1986 30.1276C80.0942 30.3427 80.0529 30.5969 80.0529 30.8707C80.0529 31.3008 80.1986 31.6528 80.4694 31.907C80.7402 32.1612 81.0948 32.3763 81.5531 32.5327C81.7195 32.5914 81.8864 32.6501 82.0321 32.7088C82.1779 32.7674 82.3236 32.8065 82.4699 32.8456C82.6156 32.8847 82.7613 32.9434 82.907 32.9825C83.0533 33.0216 83.2197 33.0803 83.3866 33.1389C83.9701 33.3345 84.4285 33.6278 84.7618 34.0188C85.0951 34.41 85.2408 34.8792 85.2408 35.4659C85.2201 35.8569 85.137 36.1894 84.97 36.5022Z" fill="#111827"/>
<path d="M22.7738 42.3099C22.5654 42.6619 22.3571 43.0334 22.1695 43.3854V44.8911H21.5236V43.3854C21.3152 43.0138 21.1069 42.6619 20.9193 42.3099C20.711 41.9579 20.5234 41.5864 20.3151 41.2344H21.0443L21.5236 42.1339C21.5861 42.2512 21.6486 42.3686 21.6902 42.4859C21.7528 42.6032 21.7944 42.7205 21.857 42.8379H21.8778L22.232 42.1144L22.6904 41.2148H23.4197C23.1905 41.606 22.9821 41.9579 22.7738 42.3099Z" fill="#EF7D00"/>
<path d="M24.5888 42.2708C24.7972 42.2708 24.9847 42.3099 25.1514 42.388C25.3181 42.4663 25.4431 42.5641 25.5473 42.7205C25.6098 42.8183 25.6723 42.9551 25.714 43.092C25.7557 43.2289 25.7557 43.4049 25.7557 43.5809C25.7557 43.7764 25.7348 43.9524 25.714 44.0893C25.6723 44.2262 25.6306 44.363 25.5681 44.4608C25.464 44.6172 25.3181 44.7541 25.1306 44.8324C24.9431 44.9105 24.7347 44.9497 24.5263 44.9497C24.318 44.9497 24.1304 44.9105 23.9637 44.8519C23.7971 44.7932 23.6721 44.6759 23.5679 44.539C23.422 44.3239 23.3386 44.0111 23.3386 43.6005C23.3386 43.4635 23.3386 43.3267 23.3595 43.1898C23.3803 43.0725 23.422 42.9551 23.4637 42.8573C23.5679 42.6618 23.7137 42.525 23.9012 42.4076C24.1096 42.3099 24.3388 42.2708 24.5888 42.2708ZM24.568 42.7987C24.4638 42.7987 24.3596 42.8183 24.2763 42.8769C24.193 42.9356 24.1304 42.9942 24.0888 43.092C24.0471 43.1702 24.0262 43.2485 24.0262 43.3267C24.0054 43.4049 24.0054 43.5027 24.0054 43.6005C24.0054 43.6982 24.0054 43.796 24.0262 43.8742C24.0471 43.9524 24.0679 44.0306 24.0888 44.0893C24.1304 44.187 24.193 44.2457 24.2763 44.3044C24.3596 44.363 24.4638 44.3826 24.568 44.3826C24.693 44.3826 24.7972 44.3435 24.8805 44.2848C24.9847 44.2262 25.0472 44.1284 25.0889 44.0111C25.1097 43.9524 25.1306 43.8937 25.1306 43.8351C25.1306 43.7569 25.1514 43.6591 25.1514 43.5613C25.1514 43.3657 25.1306 43.2093 25.0681 43.1115C25.0264 43.0138 24.9639 42.9356 24.8805 42.8769C24.7555 42.8378 24.6722 42.7987 24.568 42.7987Z" fill="#EF7D00"/>
<path d="M27.0022 42.2896V43.8343C27.0022 44.0103 27.044 44.1472 27.1273 44.2254C27.2106 44.3036 27.3357 44.3623 27.5232 44.3623C27.6691 44.3623 27.7941 44.3232 27.8982 44.2254C28.0024 44.1276 28.0441 44.0103 28.0441 43.8343V42.2896H28.6692V44.9098H28.0441V44.6556H28.0233C27.9399 44.7534 27.8357 44.8316 27.6899 44.8707C27.5649 44.9098 27.4399 44.9489 27.3148 44.9489C27.0231 44.9489 26.7939 44.8707 26.6272 44.7142C26.4605 44.5578 26.3563 44.3232 26.3563 44.0103V42.2896H27.0022Z" fill="#EF7D00"/>
<path d="M30.5649 42.8371C30.4191 42.8371 30.294 42.8761 30.1899 42.9739C30.0857 43.0717 30.044 43.189 30.044 43.365V44.9293H29.4189V42.3091H30.044V42.622H30.0649C30.2315 42.3873 30.4608 42.2896 30.7316 42.2896C30.8358 42.2896 30.94 42.3091 31.0233 42.3287C31.1067 42.3482 31.19 42.3873 31.2733 42.4264L31.0441 42.9739C30.9608 42.9348 30.8983 42.8957 30.815 42.8761C30.7108 42.8371 30.6482 42.8371 30.5649 42.8371Z" fill="#EF7D00"/>
<path d="M34.1912 42.2708C34.3996 42.2708 34.5871 42.3099 34.7538 42.388C34.9205 42.4663 35.0455 42.5641 35.1497 42.7205C35.2122 42.8183 35.2748 42.9551 35.3164 43.092C35.358 43.2289 35.358 43.4049 35.358 43.5809C35.358 43.7764 35.3372 43.9524 35.3164 44.0893C35.2748 44.2262 35.233 44.363 35.1706 44.4608C35.0664 44.6172 34.9205 44.7541 34.733 44.8324C34.5455 44.9105 34.3371 44.9497 34.1288 44.9497C33.9204 44.9497 33.7328 44.9105 33.5661 44.8519C33.3995 44.7932 33.2744 44.6759 33.1702 44.539C33.0244 44.3239 32.941 44.0111 32.941 43.6005C32.941 43.4635 32.941 43.3267 32.9619 43.1898C32.9827 43.0725 33.0244 42.9551 33.066 42.8573C33.1702 42.6618 33.3161 42.525 33.5037 42.4076C33.712 42.3099 33.9412 42.2708 34.1912 42.2708ZM34.1704 42.7987C34.0662 42.7987 33.962 42.8183 33.8787 42.8769C33.7953 42.9356 33.7328 42.9942 33.6911 43.092C33.6495 43.1702 33.6287 43.2485 33.6287 43.3267C33.6078 43.4049 33.6078 43.5027 33.6078 43.6005C33.6078 43.6982 33.6078 43.796 33.6287 43.8742C33.6495 43.9524 33.6703 44.0306 33.6911 44.0893C33.7328 44.187 33.7953 44.2457 33.8787 44.3044C33.962 44.363 34.0662 44.3826 34.1704 44.3826C34.2954 44.3826 34.3996 44.3435 34.4829 44.2848C34.5871 44.2262 34.6497 44.1284 34.6913 44.0111C34.7121 43.9524 34.733 43.8937 34.733 43.8351C34.733 43.7569 34.7538 43.6591 34.7538 43.5613C34.7538 43.3657 34.733 43.2093 34.6705 43.1115C34.6288 43.0138 34.5663 42.9356 34.4829 42.8769C34.3788 42.8378 34.2746 42.7987 34.1704 42.7987Z" fill="#EF7D00"/>
<path d="M37.6535 44.9105V43.3657C37.6535 43.1898 37.6119 43.0725 37.5285 42.9747C37.4452 42.8769 37.3202 42.8378 37.1326 42.8378C36.9868 42.8378 36.841 42.8769 36.7576 42.9747C36.6534 43.0725 36.6117 43.1898 36.6117 43.3657V44.9105H35.9867V42.2903H36.6117V42.5641H36.6326C36.716 42.4663 36.841 42.388 36.966 42.3489C37.091 42.2903 37.2368 42.2708 37.3619 42.2708C37.6535 42.2708 37.8828 42.3489 38.0494 42.5054C38.2162 42.6618 38.2995 42.8965 38.2995 43.1898V44.9105H37.6535Z" fill="#EF7D00"/>
<path d="M39.7785 44.9105C39.6741 44.9105 39.5697 44.8909 39.4653 44.8714C39.3818 44.8519 39.2983 44.8127 39.2148 44.7541C39.1521 44.6954 39.0895 44.6367 39.0477 44.539C39.006 44.4412 38.9851 44.3434 38.9851 44.2065V41.0583H39.6324V44.1088C39.6324 44.2065 39.6532 44.2652 39.695 44.3043C39.7368 44.3434 39.7994 44.363 39.9038 44.363H40.0082V44.8909H39.7785V44.9105Z" fill="#EF7D00"/>
<path d="M40.5267 41.7812V41.2336H41.1531V41.7812H40.5267ZM40.5267 44.9099V42.2896H41.1531V44.9099H40.5267Z" fill="#EF7D00"/>
<path d="M43.5893 44.9105V43.3657C43.5893 43.1898 43.5476 43.0725 43.4642 42.9747C43.3809 42.8769 43.2559 42.8378 43.0684 42.8378C42.9225 42.8378 42.7975 42.8769 42.6933 42.9747C42.5891 43.0725 42.5475 43.1898 42.5475 43.3657V44.9105H41.9015V42.2903H42.5475V42.5641H42.5683C42.6516 42.4663 42.7767 42.388 42.9017 42.3489C43.0267 42.2903 43.1726 42.2708 43.2976 42.2708C43.5893 42.2708 43.8185 42.3489 43.9851 42.5054C44.1518 42.6618 44.2352 42.8965 44.2352 43.1898V44.9105H43.5893Z" fill="#EF7D00"/>
<path d="M45.4411 43.7762C45.4411 43.8545 45.4619 43.9326 45.4828 44.0109C45.5036 44.0891 45.5453 44.1478 45.587 44.2064C45.6286 44.2651 45.6912 44.3042 45.7745 44.3433C45.8578 44.3824 45.9412 44.402 46.0454 44.402C46.1287 44.402 46.2329 44.3824 46.3579 44.3433C46.4829 44.3042 46.6079 44.2455 46.7121 44.1478C46.7746 44.226 46.8372 44.2846 46.8996 44.3629C46.9622 44.4411 47.0246 44.4997 47.0872 44.578C46.9205 44.7148 46.7538 44.8126 46.5663 44.8713C46.3787 44.93 46.2121 44.9495 46.0245 44.9495C45.8786 44.9495 45.7328 44.93 45.587 44.8908C45.4411 44.8517 45.3161 44.7735 45.1911 44.6758C45.0661 44.578 44.9827 44.4411 44.8994 44.2651C44.816 44.0891 44.7952 43.874 44.7952 43.6003C44.7952 43.3461 44.8368 43.131 44.8994 42.9549C44.9827 42.779 45.0661 42.6421 45.1911 42.5443C45.3161 42.4465 45.4411 42.3684 45.587 42.3097C45.7328 42.2706 45.8786 42.2314 46.0245 42.2314C46.2121 42.2314 46.3787 42.2706 46.5246 42.3292C46.6705 42.3879 46.7955 42.4661 46.8996 42.5834C47.0038 42.7007 47.0872 42.8181 47.1288 42.9745C47.1914 43.131 47.2122 43.3069 47.2122 43.4829V43.7371H45.4411V43.7762ZM45.9828 42.8181C45.837 42.8181 45.712 42.8572 45.6078 42.9549C45.5036 43.0527 45.4619 43.1896 45.4411 43.3656H46.5037C46.4829 43.1896 46.4413 43.0527 46.3371 42.9549C46.2537 42.8572 46.1287 42.8181 45.9828 42.8181Z" fill="#EF7D00"/>
<path d="M51.5696 43.5612C51.5696 43.7177 51.5488 43.8741 51.5279 44.0306C51.5071 44.187 51.4654 44.3434 51.382 44.4803C51.3196 44.6172 51.2154 44.7149 51.0695 44.8127C50.9445 44.8909 50.7569 44.9496 50.5486 44.9496C50.4236 44.9496 50.2986 44.93 50.1736 44.8909C50.0486 44.8518 49.9444 44.7736 49.861 44.6758H49.8402V44.93H49.1942V41.0974H49.8402V42.564H49.861C49.9652 42.4662 50.0694 42.4075 50.1944 42.3489C50.3194 42.3098 50.4444 42.2902 50.5486 42.2902C50.7569 42.2902 50.9237 42.3293 51.0487 42.4075C51.1737 42.4858 51.2779 42.5835 51.3612 42.7204C51.4238 42.8377 51.4862 42.9746 51.5071 43.131C51.5488 43.2484 51.5696 43.4048 51.5696 43.5612ZM50.9028 43.6003C50.9028 43.5026 50.9028 43.4244 50.882 43.3266C50.882 43.2288 50.8403 43.1506 50.8195 43.0724C50.7778 42.9942 50.7361 42.9355 50.6528 42.8964C50.5903 42.8573 50.4861 42.8182 50.3611 42.8182C50.236 42.8182 50.1527 42.8377 50.0902 42.8964C50.0277 42.9551 49.9652 43.0138 49.9235 43.0919C49.8818 43.1702 49.861 43.2484 49.861 43.3461C49.8402 43.4439 49.8402 43.5222 49.8402 43.6003C49.8402 43.6786 49.8402 43.7764 49.861 43.8545C49.861 43.9523 49.9027 44.0305 49.9235 44.1087C49.9652 44.187 50.0068 44.2457 50.0902 44.3043C50.1527 44.3629 50.2569 44.3825 50.3819 44.3825C50.5069 44.3825 50.5903 44.3629 50.6737 44.3043C50.7361 44.2457 50.7987 44.187 50.8403 44.1087C50.882 44.0305 50.9028 43.9523 50.9028 43.8545C50.9028 43.7764 50.9028 43.6786 50.9028 43.6003Z" fill="#EF7D00"/>
<path d="M53.3417 42.8371C53.1958 42.8371 53.0708 42.8761 52.9666 42.9739C52.8624 43.0717 52.8208 43.189 52.8208 43.365V44.9293H52.1957V42.3091H52.8208V42.622H52.8416C53.0083 42.3873 53.2375 42.2896 53.5083 42.2896C53.6125 42.2896 53.7167 42.3091 53.8001 42.3287C53.8834 42.3482 53.9668 42.3873 54.0501 42.4264L53.8209 42.9739C53.7376 42.9348 53.675 42.8957 53.5917 42.8761C53.4875 42.8371 53.425 42.8371 53.3417 42.8371Z" fill="#EF7D00"/>
<path d="M55.4034 42.2708C55.6118 42.2708 55.7993 42.3099 55.966 42.388C56.1327 42.4663 56.2577 42.5641 56.3619 42.7205C56.4244 42.8183 56.4869 42.9551 56.5286 43.092C56.5703 43.2289 56.5702 43.4049 56.5702 43.5809C56.5702 43.7764 56.5494 43.9524 56.5286 44.0893C56.4869 44.2262 56.4452 44.363 56.3827 44.4608C56.2786 44.6172 56.1327 44.7541 55.9451 44.8324C55.7576 44.9105 55.5493 44.9497 55.3409 44.9497C55.1326 44.9497 54.945 44.9105 54.7783 44.8519C54.6116 44.7932 54.4866 44.6759 54.3825 44.539C54.2366 44.3239 54.1532 44.0111 54.1532 43.6005C54.1532 43.4635 54.1532 43.3267 54.1741 43.1898C54.1949 43.0725 54.2366 42.9551 54.2783 42.8573C54.3824 42.6618 54.5283 42.525 54.7158 42.4076C54.9242 42.3099 55.1534 42.2708 55.4034 42.2708ZM55.3826 42.7987C55.2784 42.7987 55.1742 42.8183 55.0908 42.8769C55.0075 42.9356 54.945 42.9942 54.8825 43.092C54.8408 43.1702 54.82 43.2485 54.82 43.3267C54.7992 43.4049 54.7992 43.5027 54.7992 43.6005C54.7992 43.6982 54.7992 43.796 54.82 43.8742C54.8408 43.9524 54.8617 44.0306 54.8825 44.0893C54.9242 44.187 54.9867 44.2457 55.07 44.3044C55.1534 44.363 55.2576 44.3826 55.3617 44.3826C55.4867 44.3826 55.5909 44.3435 55.6743 44.2848C55.7785 44.2262 55.841 44.1284 55.8827 44.0111C55.9035 43.9524 55.9243 43.8937 55.9243 43.8351C55.9243 43.7569 55.9451 43.6591 55.9451 43.5613C55.9451 43.3657 55.9243 43.2093 55.8618 43.1115C55.8201 43.0138 55.7577 42.9356 55.6743 42.8769C55.5909 42.8378 55.4868 42.7987 55.3826 42.7987Z" fill="#EF7D00"/>
<path d="M59.0507 44.9105C58.9048 44.7149 58.7798 44.5194 58.634 44.3239C58.5089 44.1283 58.3631 43.9328 58.2173 43.7372C58.1547 43.7959 58.0922 43.8741 58.0297 43.9328C57.9672 43.9914 57.9047 44.0697 57.8422 44.1283V44.8909H57.1963V41.0583H57.8422V43.3657H57.863L58.4048 42.7791L58.884 42.2903H59.6549L58.6548 43.3071C58.8423 43.5808 59.0298 43.835 59.2174 44.1088C59.4049 44.3825 59.5925 44.6367 59.7799 44.9105H59.0507Z" fill="#EF7D00"/>
<path d="M60.6119 43.7762C60.6119 43.8545 60.6327 43.9326 60.6536 44.0109C60.6744 44.0891 60.716 44.1478 60.7578 44.2064C60.7994 44.2651 60.8619 44.3042 60.9452 44.3433C61.0286 44.3824 61.1119 44.402 61.2161 44.402C61.2995 44.402 61.4037 44.3824 61.5287 44.3433C61.6537 44.3042 61.7787 44.2455 61.8829 44.1478C61.9454 44.226 62.0079 44.2846 62.0704 44.3629C62.1329 44.4411 62.1954 44.4997 62.2579 44.578C62.0912 44.7148 61.9246 44.8126 61.737 44.8713C61.5495 44.93 61.3828 44.9495 61.1953 44.9495C61.0494 44.9495 60.9036 44.93 60.7578 44.8908C60.6119 44.8517 60.4869 44.7735 60.3618 44.6758C60.2368 44.578 60.1535 44.4411 60.0701 44.2651C60.0077 44.0891 59.9659 43.874 59.9659 43.6003C59.9659 43.3461 60.0077 43.131 60.0701 42.9549C60.1535 42.779 60.2368 42.6421 60.3618 42.5443C60.4869 42.4465 60.6119 42.3684 60.7578 42.3097C60.9036 42.2706 61.0494 42.2314 61.1953 42.2314C61.3828 42.2314 61.5495 42.2706 61.6954 42.3292C61.8412 42.3879 61.9662 42.4661 62.0704 42.5834C62.1746 42.7007 62.2579 42.8181 62.2996 42.9745C62.3621 43.131 62.3829 43.3069 62.3829 43.4829V43.7371H60.6119V43.7762ZM61.1536 42.8181C61.0078 42.8181 60.8828 42.8572 60.7786 42.9549C60.6744 43.0527 60.6327 43.1896 60.6119 43.3656H61.6745C61.6537 43.1896 61.612 43.0527 61.5078 42.9549C61.4245 42.8572 61.2995 42.8181 61.1536 42.8181Z" fill="#EF7D00"/>
<path d="M64.155 42.8371C64.0093 42.8371 63.8842 42.8761 63.7798 42.9739C63.676 43.0717 63.6341 43.189 63.6341 43.365V44.9293H62.9883V42.3091H63.6134V42.622H63.6341C63.801 42.3873 64.0299 42.2896 64.3007 42.2896C64.4051 42.2896 64.5095 42.3091 64.5927 42.3287C64.6759 42.3482 64.7597 42.3873 64.8428 42.4264L64.6134 42.9739C64.5302 42.9348 64.4676 42.8957 64.3845 42.8761C64.3007 42.8371 64.2175 42.8371 64.155 42.8371Z" fill="#EF7D00"/>
<path d="M14.212 34.3308C14.212 34.8783 13.7327 35.328 13.1493 35.328C12.5659 35.328 12.0867 34.8783 12.0867 34.3308C12.0867 33.7832 12.5659 33.3335 13.1493 33.3335C13.7327 33.3531 14.212 33.7832 14.212 34.3308Z" fill="#111827"/>
<defs>
<linearGradient id="paint0_linear_2_2061" x1="43.1289" y1="0.249735" x2="43.1289" y2="26.9414" gradientUnits="userSpaceOnUse">
<stop stop-color="#F39200"/>
<stop offset="1" stop-color="#F07E00"/>
</linearGradient>
</defs>
</svg>
